<svg xmlns="http://www.w3.org/2000/svg" width="16" height="16" viewBox="0 0 16 16">
  <circle cx="8" cy="8" r="7" fill="#FF69B4"/>
  <circle cx="5.5" cy="6.5" r="1" fill="#000"/>
  <circle cx="10.5" cy="6.5" r="1" fill="#000"/>
  <path d="M8 11.5c2.485 0 4.5-1.792 4.5-4s-2.015-4-4.5-4-4.5 1.792-4.5 4S5.515 11.5 8 11.5Z" fill="#FF4081"/>
  <path d="M7 10.5a2.003 2.003 0 0 1 2 0Z" fill="#FFF"/>
  <path d="M7.5 13h1v1h-1v-1Z" fill="#FFF"/>
  <path d="M5 5a1 1 0 1 1 2 0 1 1 0 0 1-2 0Z" fill="#FFF"/>
  <path d="M9 5a1 1 0 1 1 2 0 1 1 0 0 1-2 0Z" fill="#FFF"/>
</svg>
