<svg xmlns="http://www.w3.org/2000/svg" width="16" height="16" fill="#FF4081" class="bi bi-robot" viewBox="0 0 16 16">
  <path d="M6 12.5a.5.5 0 0 1 .5-.5h3a.5.5 0 0 1 0 1h-3a.5.5 0 0 1-.5-.5ZM3 8.062C3 6.76 4.235 5.765 5.53 5.886a26.58 26.58 0 0 0 4.94 0C11.765 5.765 13 6.76 13 8.062v1.157a.933.933 0 0 1-.765.935c-.845.147-2.34.346-4.235.346-1.895 0-3.39-.2-4.235-.346A.933.933 0 0 1 3 9.219V8.062Zm4.542-.827a.25.25 0 0 0-.217.068l-.92.9a24.767 24.767 0 0 1-1.871-.183.25.25 0 0 0-.068.495c.55.076 1.232.149 2.02.193a.25.25 0 0 0 .189-.071l.754-.736.847 1.71a.25.25 0 0 0 .404.062l.932-.97a25.286 25.286 0 0 0 1.922-.188.25.25 0 0 0-.068-.495c-.538.074-1.207.145-1.98.189a.25.25 0 0 0-.166.076l-.754.785-.842-1.7a.25.25 0 0 0-.182-.135Z"/>
  <circle cx="8" cy="7.5" r="3.5" fill="#F06292"/>
  <circle cx="6" cy="6" r="1" fill="#000"/>
  <circle cx="10" cy="6" r="1" fill="#000"/>
  <path d="M8 10.5c1.152 0 2.286-.408 3.116-1.19.172-.169.314-.37.424-.596.228-.46.354-.98.354-1.714V6a1 1 0 1 0-2 0v1.5c0 .215-.048.367-.145.548-.056.105-.131.194-.226.289-.318.318-.772.373-1.202.373s-.884-.055-1.202-.373c-.095-.095-.17-.184-.226-.289-.097-.181-.145-.333-.145-.548V6a1 1 0 1 0-2 0v1.5c0 .734.126 1.254.354 1.714.11.225.252.427.424.596.83.782 1.964 1.19 3.116 1.19Z"/>
</svg>
