<svg xmlns="http://www.w3.org/2000/svg" width="16" height="16" viewBox="0 0 16 16">
  <circle cx="8" cy="8" r="7" fill="#4B0082" stroke="#00FFFF" stroke-width="1.5"/>
  <circle cx="5.5" cy="6" r="1" fill="#00FFFF"/>
  <circle cx="10.5" cy="6" r="1" fill="#00FFFF"/>
  <path d="M6.5 11.5a3.5 3.5 0 0 1 3 0" fill="none" stroke="#00FFFF" stroke-linecap="round"/>
  <path d="M5.5 11.5a6 6 0 0 0 5 0" fill="none" stroke="#00FFFF" stroke-linecap="round"/>
  <circle cx="8" cy="4.5" r="0.8" fill="#00FFFF"/>
  <circle cx="7" cy="4.8" r="0.15" fill="#000"/>
  <circle cx="9" cy="4.8" r="0.15" fill="#000"/>
  <path d="M8 5.8c0 .3-0.6.55-1.3.55s-1.3-0.25-1.3-0.55v-0.1c0-.3 0.6-0.55 1.3-0.55s1.3 0.25 1.3 0.55v0.1Z" fill="#00FFFF"/>
</svg>
