<svg xmlns="http://www.w3.org/2000/svg" width="16" height="16" fill="#007BFF" class="bi bi-robot" viewBox="0 0 16 16">
  <path d="M6.5 12h3a.5.5 0 0 0 0-1h-3a.5.5 0 0 0 0 1ZM5.53 5.886a4.38 4.38 0 0 1 4.94 0A6.345 6.345 0 0 1 13 8.062v1.157a.933.933 0 0 1-.765.935c-.845.147-2.34.346-4.235.346-1.895 0-3.39-.2-4.235-.346A.933.933 0 0 1 3 9.219V8.062C3 6.76 4.235 5.765 5.53 5.886Zm3.314-.759a.25.25 0 0 0-.217.068l-.92.9a3.95 3.95 0 0 1-1.871-.183.25.25 0 0 0-.068.495c.55.076 1.232.149 2.02.193a.25.25 0 0 0 .189-.071l.754-.736.847 1.71a.25.25 0 0 0 .404.062l.932-.97a3.952 3.952 0 0 0 1.922-.188.25.25 0 0 0-.068-.495c-.538.074-1.207.145-1.98.189a.25.25 0 0 0-.166.076l-.754.785-.842-1.7a.25.25 0 0 0-.182-.135Z"/>
  <path d="M8.5 1.866a1 1 0 1 0-1 0V3h-2A4.5 4.5 0 0 0 1 7.5V8a1 1 0 0 0-1 1v2a1 1 0 0 0 1 1v1a2 2 0 0 0 2 2h10a2 2 0 0 0 2-2v-1a1 1 0 0 0 1-1V9a1 1 0 0 0-1-1v-.5A4.5 4.5 0 0 0 10.5 3h-2V1.866ZM14 7.5V13a1 1 0 0 1-1 1H3a1 1 0 0 1-1-1V7.5A3.5 3.5 0 0 1 5.5 4h5A3.5 3.5 0 0 1 14 7.5Z"/>
  <circle cx="8" cy="9" r="2.5" fill="#007BFF" opacity="0.3"/>
  <circle cx="8" cy="6.5" r="0.5" fill="#007BFF"/>
</svg>
