<svg xmlns="http://www.w3.org/2000/svg" width="16" height="16" viewBox="0 0 16 16">
  <circle cx="8" cy="8" r="7" fill="#55C1E7" stroke="#0F9D58" stroke-width="1.5"/>
  <circle cx="5.5" cy="6" r="1" fill="#000"/>
  <circle cx="10.5" cy="6" r="1" fill="#000"/>
  <path d="M6.5 11.5a3.5 3.5 0 0 1 3 0" fill="none" stroke="#000" stroke-linecap="round"/>
  <path d="M5.5 11.5a6 6 0 0 0 5 0" fill="none" stroke="#000" stroke-linecap="round"/>
  <path d="M6 3.5c-.5-.5-1.3-.5-1.8 0-.5.5-.5 1.3 0 1.8.5.5 1.3.5 1.8 0 .5-.5.5-1.3 0-1.8Z" fill="#0F9D58"/>
  <path d="M9 3.5c-.5-.5-1.3-.5-1.8 0-.5.5-.5 1.3 0 1.8.5.5 1.3.5 1.8 0 .5-.5.5-1.3 0-1.8Z" fill="#0F9D58"/>
  <path d="M7.5 2c-.3 0-.5.2-.5.5v1c0 .3.2.5.5.5s.5-.2.5-.5v-1c0-.3-.2-.5-.5-.5Z" fill="#0F9D58"/>
</svg>
