<svg xmlns="http://www.w3.org/2000/svg" width="16" height="16" fill="#FF1493" class="bi bi-person" viewBox="0 0 16 16">
  <path d="M8 0C3.373 0 0 3.527 0 7.875c0 2.51 1.383 4.735 3.516 5.887-.072.537-.402.988-.878 1.24C1.822 15.607 4.717 16 8 16s6.178-.393 8.362-1.998c-.476-.252-.807-.703-.878-1.24C14.617 12.61 16 10.384 16 7.875 16 3.527 12.627 0 8 0zm0 12.75A5.875 5.875 0 0 1 2.125 7.875c0-2.603 2.122-4.875 5.25-4.875 3.128 0 5.25 2.272 5.25 4.875A5.875 5.875 0 0 1 8 12.75zm5.628-7.75H10.95a.944.944 0 0 0-.944.944v.471c0 .92-.75 1.667-1.667 1.667H6.667c-.917 0-1.667-.747-1.667-1.667v-.471A.944.944 0 0 0 4.056 5H2.372a.944.944 0 0 0-.944.944v.471c0 2.222 1.81 4.028 4.028 4.028h3.306c2.218 0 4.028-1.806 4.028-4.028v-.471a.944.944 0 0 0-.944-.944zm-4.684 0c-1.268 0-2.295-1.026-2.295-2.295S7.676 1.41 8.944 1.41 11.24 2.436 11.24 3.705 10.213 5 8.944 5zm0 0c.504 0 .911-.408.911-.911s-.407-.911-.911-.911-.911.408-.911.911.407.911.911.911zm4.22 5.022c-.584 1.333-2.494 2.25-4.22 2.25-1.727 0-3.637-.917-4.22-2.25h8.44zm0 0H4.724c-.106-.317-.163-.65-.163-1s.057-.683.163-1h8.44c.106.317.163.65.163 1s-.057.683-.163 1zm0 0"></path>
</svg>
