<svg xmlns="http://www.w3.org/2000/svg" width="16" height="16" fill="#FF69B4" class="bi bi-person" viewBox="0 0 16 16">
  <path d="M8 0C3.582 0 0 3.582 0 8c0 4.418 3.582 8 8 8s8-3.582 8-8c0-4.418-3.582-8-8-8zm0 12.5A4.502 4.502 0 0 1 3.5 8c0-2.481 2.019-4.5 4.5-4.5s4.5 2.019 4.5 4.5a4.502 4.502 0 0 1-4.5 4.5zm0-1a3.502 3.502 0 0 0 3.5-3.5c0-1.93-1.57-3.5-3.5-3.5s-3.5 1.57-3.5 3.5a3.502 3.502 0 0 0 3.5 3.5zm4.5-8a.5.5 0 0 1-.5.5h-1a.5.5 0 0 1 0-1h1a.5.5 0 0 1 .5.5zm-9 0a.5.5 0 0 0 .5.5h1a.5.5 0 0 0 0-1h-1a.5.5 0 0 0-.5.5zm4 9c-1.5 0-2.5.5-3 1v.5h6v-.5c-.5-.5-1.5-1-3-1z"/>
</svg>
