<svg xmlns="http://www.w3.org/2000/svg" width="16" height="16" viewBox="0 0 16 16">
  <path d="M8 0C3.48 0 0 3.528 0 7.875 0 11.418 3.013 14 8 14s8-2.582 8-6.125C16 3.528 12.52 0 8 0zm0 12.75A5.875 5.875 0 0 1 2.125 7.875 5.875 5.875 0 0 1 8 2 5.875 5.875 0 0 1 13.875 7.875 5.875 5.875 0 0 1 8 12.75zm4.875-7.5H12.5a.625.625 0 0 0-.625.625v.625a2.5 2.5 0 0 1-5 0v-.625a.625.625 0 0 0-.625-.625H3.125a.625.625 0 0 0-.625.625v.625a3.75 3.75 0 0 0 7.5 0v-.625a.625.625 0 0 0-.625-.625zm-6.25 0a.625.625 0 0 0-.625.625v.625a1.25 1.25 0 1 0 2.5 0v-.625a.625.625 0 0 0-.625-.625z"/>
</svg>
